<svg xmlns="http://www.w3.org/2000/svg" viewBox="0 0 124 31"><path d="M31.8 21.7c-1.5 0-2.4-.4-2.4-1.6v-9.3h6.2V6.2h-6.2V0h-4.5v6.2H9.2s-6.4-.3-6.4 6.1c0 6.4 6.4 6.1 6.4 6.1h7.6c1.3 0 1.6 1.1 1.6 1.6s-.3 1.6-1.6 1.6H0v4.5h16.7s6.5.3 6.5-6.1c0-6.2-6.5-6.1-6.5-6.1H9.2c-1.3 0-1.6-1.1-1.6-1.6s.3-1.6 1.6-1.6h15.7V20s-.5 6.1 5.9 6.1h4.8v-4.5c0 .1-3.6.1-3.8.1zm15.6-6.5H52v-2.9c0-6.3-6.3-6.1-6.3-6.1h-8.4v20h4.6V10.9h3.8c1.2 0 1.8.7 1.8 2-.1.9-.1 2.3-.1 2.3zm72.1 0h4.5v-2.9c0-6.3-6.3-6.1-6.3-6.1h-8.4v20h4.6V10.9h3.8c1.2 0 1.8.7 1.8 2v2.3zM51.6 26.5V31h5.7c.3 0 2.2.1 3.7-1 2.2-1.3 3.2-4.6 3.5-5.4.3-1 5.5-18.4 5.5-18.4h-5l-3.9 14.2-4-14.2h-5l5.6 18.4.1.5c.2.7-.1 1.4-.8 1.4h-5.4zm24.3-12.7V0h-4.5v26.2h4.5v-5.6l2.6-3.2 5 8.8h5.2l-6.9-12.3 6.4-7.7h-5.9l-6.4 7.6zm31.6 2.3c0-5.5-4.2-10-10-10-6.2.1-10.1 4.5-10.1 10 0 5.4 4.2 10.1 9.8 10.1h6.5v-4.5h-6.1c-2.3 0-4.9-1.7-5.2-3.8h15c0-.6.1-1.2.1-1.8zM92.4 14c.4-1.8 2.7-3.5 5.1-3.5 2.4 0 4.6 1.6 5.1 3.5H92.4z"/></svg>