<?xml version="1.0" encoding="utf-8"?>
<!-- Generator: Adobe Illustrator 19.0.0, SVG Export Plug-In . SVG Version: 6.00 Build 0)  -->
<svg version="1.1" id="Layer_1" xmlns="http://www.w3.org/2000/svg" xmlns:xlink="http://www.w3.org/1999/xlink" x="0px" y="0px"
	 viewBox="0 0 124 31" style="enable-background:new 0 0 124 31;" xml:space="preserve">
<path d="M31.8,21.7c-1.5,0-2.4-0.4-2.4-1.6c0-0.7,0-9.3,0-9.3h6.2V6.2h-6.2V0h-4.5v6.2H9.2c0,0-6.4-0.3-6.4,6.1
	c0,6.4,6.4,6.1,6.4,6.1h7.6c1.3,0,1.6,1.1,1.6,1.6c0,0.5-0.3,1.6-1.6,1.6c-1.4,0-16.8,0-16.8,0v4.5h16.7c0,0,6.5,0.3,6.5-6.1
	c0-6.2-6.5-6.1-6.5-6.1H9.2c-1.3,0-1.6-1.1-1.6-1.6s0.3-1.6,1.6-1.6c1.4,0,15.7,0,15.7,0V20c0,0-0.5,6.1,5.9,6.1h4.8v-4.5
	C35.6,21.7,32,21.7,31.8,21.7z M47.4,15.2H52v-2.9c0-6.3-6.3-6.1-6.3-6.1h-8.4v20h4.6V10.9h3.8c1.2,0,1.8,0.7,1.8,2
	C47.4,13.8,47.4,15.2,47.4,15.2z M119.5,15.2h4.5v-2.9c0-6.3-6.3-6.1-6.3-6.1h-8.4v20h4.6V10.9h3.8c1.2,0,1.8,0.7,1.8,2
	C119.5,13.8,119.5,15.2,119.5,15.2z M51.6,26.5V31h5.7c0.3,0,2.2,0.1,3.7-1c2.2-1.3,3.2-4.6,3.5-5.4c0.3-1,5.5-18.4,5.5-18.4h-5
	l-3.9,14.2L57.1,6.2h-5l5.6,18.4l0.1,0.5c0.2,0.7-0.1,1.4-0.8,1.4H51.6z M75.9,13.8V0h-4.5v26.2h4.5v-5.6l2.6-3.2l5,8.8h5.2
	l-6.9-12.3l6.4-7.7h-5.9L75.9,13.8z M107.5,16.1c0-5.5-4.2-10-10-10c-6.2,0.1-10.1,4.5-10.1,10c0,5.4,4.2,10.1,9.8,10.1h6.5v-4.5
	c0,0-5.2,0-6.1,0c-2.3,0-4.9-1.7-5.2-3.8h15C107.4,17.3,107.5,16.7,107.5,16.1z M92.4,14c0.4-1.8,2.7-3.5,5.1-3.5
	c2.4,0,4.6,1.6,5.1,3.5H92.4z"/>
</svg>
